<!DOCTYPE svg PUBLIC "-//W3C//DTD SVG 1.1//EN" "http://www.w3.org/Graphics/SVG/1.1/DTD/svg11.dtd">
<!-- Uploaded to: SVG Repo, www.svgrepo.com, Transformed by: SVG Repo Mixer Tools -->
<svg fill="#00ff00" height="800px" width="800px" version="1.1" id="Layer_1" xmlns="http://www.w3.org/2000/svg" xmlns:xlink="http://www.w3.org/1999/xlink" viewBox="0 0 512.002 512.002" xml:space="preserve" stroke="#00ff00">
<g id="SVGRepo_bgCarrier" stroke-width="0"/>
<g id="SVGRepo_tracerCarrier" stroke-linecap="round" stroke-linejoin="round"/>
<g id="SVGRepo_iconCarrier"> <g> <g> <path d="M442.341,199.542c-1.021-2.571-3.178-4.521-5.839-5.276c-29.741-8.456-53.955-1.396-68.383,5.449V87.773 c0-23.88-19.428-43.307-43.307-43.307c-9.53,0-18.346,3.101-25.505,8.337v-9.497C299.306,19.428,279.878,0,255.999,0 s-43.307,19.428-43.307,43.307v9.496c-7.16-5.236-15.974-8.337-25.504-8.337c-23.88,0-43.307,19.428-43.307,43.307v111.94 c-14.428-6.843-38.649-13.901-68.383-5.447c-2.657,0.755-4.811,2.706-5.833,5.273c-1.022,2.567-0.793,5.466,0.618,7.841 c0.362,0.608,36.066,61.735,36.066,147.67v7.299c0,82.519,67.134,149.654,149.654,149.654s149.654-67.135,149.654-149.654v-7.299 c0-85.935,35.704-147.062,36.061-147.661C443.13,205.011,443.362,202.113,442.341,199.542z M387.851,355.048v7.299 c0,72.703-59.149,131.852-131.852,131.852S124.147,435.05,124.147,362.347v-7.299c0-70.382-22.098-124.042-32.865-146.008 c25.966-3.788,45.204,6.193,52.596,10.916v31.992c0,4.916,3.984,8.901,8.901,8.901c4.917,0,8.901-3.985,8.901-8.901V87.773 c0-14.064,11.442-25.505,25.505-25.505S212.69,73.71,212.69,87.773v167.184c0,4.916,3.984,8.901,8.901,8.901 s8.901-3.985,8.901-8.901V43.307c0-14.064,11.442-25.505,25.505-25.505c14.064,0,25.504,11.442,25.504,25.505v211.65 c0,4.916,3.984,8.901,8.901,8.901c4.917,0,8.901-3.985,8.901-8.901V87.773c0-14.064,11.442-25.505,25.505-25.505 c14.064,0,25.505,11.442,25.505,25.505v164.176c0,4.916,3.984,8.901,8.901,8.901c4.917,0,8.901-3.985,8.901-8.901v-31.976 c7.396-4.687,26.728-14.665,52.593-10.924C409.944,231.017,387.851,284.672,387.851,355.048z"/> </g> </g> <g> <g> <path d="M347.887,348.062c-24.545-24.543-57.178-38.061-91.888-38.061s-67.344,13.516-91.888,38.061 c-3.476,3.476-3.476,9.111,0,12.587c24.544,24.544,57.178,38.061,91.888,38.061s67.342-13.516,91.888-38.061 c1.669-1.669,2.606-3.933,2.606-6.294S349.555,349.73,347.887,348.062z M255.999,380.909c-26.842,0-52.244-9.366-72.474-26.553 c20.23-17.186,45.632-26.553,72.474-26.553c26.841,0,52.244,9.366,72.473,26.553C308.243,371.542,282.841,380.909,255.999,380.909 z"/> </g> </g> <g> <g> <path d="M256,332.335c-12.143,0-22.022,9.878-22.022,22.021c0,12.142,9.879,22.021,22.022,22.021s22.022-9.879,22.022-22.021 C278.022,342.214,268.143,332.335,256,332.335z M256,360.819c-3.563,0-6.461-2.898-6.461-6.462c0-3.564,2.898-6.462,6.461-6.462 c3.563,0,6.461,2.899,6.461,6.462C262.461,357.919,259.563,360.819,256,360.819z"/> </g> </g> </g>
</svg>